<svg xmlns="http://www.w3.org/2000/svg" viewBox="0 0 512 512" width="512" height="512">
  <defs><linearGradient id="g" x1="0" y1="0" x2="1" y2="1">
    <stop offset="0" stop-color="#0A84FF"/><stop offset="1" stop-color="#5E5CE6"/>
  </linearGradient></defs>
  <rect width="512" height="512" rx="120" fill="url(#g)"/>
  <path d="M256 96l128 48v112c0 84-54 142-128 168-74-26-128-84-128-168V144l128-48z"
        fill="#fff" opacity=".14"/>
  <path d="M256 118l108 40v98c0 71-45 120-108 143-63-23-108-72-108-143v-98l108-40z"
        fill="#fff"/>
  <circle cx="196" cy="252" r="30" fill="#0A84FF"/>
  <circle cx="316" cy="252" r="30" fill="#5E5CE6"/>
  <path d="M226 306c18 16 42 16 60 0" stroke="#0A84FF" stroke-width="18"
        stroke-linecap="round" fill="none"/>
</svg>
